<svg width="508" height="116" viewBox="0 0 508 116" fill="none" xmlns="http://www.w3.org/2000/svg">
<g clip-path="url(#clip0_3_87)">
<path d="M0 38.5935C38.2916 22.746 77.6584 49.2272 115.95 33.3797C115.95 24.0287 115.95 9.44241 115.95 0.091395C77.6584 15.9403 38.2916 -10.5824 0 5.26509C0 14.6161 0 29.2425 0 38.5935Z" fill="#4EBC84"/>
<path d="M0 115.891C38.2916 100.044 77.6584 126.525 115.95 110.678C115.95 101.327 115.95 86.7403 115.95 77.3892C77.6584 93.2382 38.2916 66.7154 0 82.5629C0 91.9139 0 106.54 0 115.891Z" fill="#397161"/>
<path d="M0 77.2432C38.2916 61.3957 77.6584 87.8769 115.95 72.0294C115.95 62.6784 115.95 48.0922 115.95 38.7411C77.6584 54.5886 38.2916 28.0659 0 43.9148C0 53.2659 0 67.8922 0 77.2432Z" fill="#429775"/>
</g>
<path d="M464.536 110.736C461.752 110.736 458.968 110.352 456.76 109.296V98.736C458.488 99.216 460.984 99.6 463.096 99.6C468.856 99.6 470.872 96.72 472.888 92.304L474.04 89.52L453.4 37.296H466.936L480.472 73.296L493.912 37.296H507.544L484.792 94.8C480.76 104.88 474.328 110.736 464.536 110.736Z" fill="black"/>
<path d="M424.946 90.672C409.298 90.672 397.682 78.864 397.682 63.312C397.682 47.856 409.298 36.144 424.946 36.144C436.082 36.144 445.394 42.384 448.658 51.6L437.618 56.4C435.602 51.12 430.898 47.664 424.946 47.664C416.69 47.664 410.738 54.288 410.738 63.408C410.738 72.528 416.69 79.152 424.946 79.152C430.994 79.152 435.602 75.792 437.618 70.32L448.658 75.312C445.586 84.24 436.274 90.672 424.946 90.672Z" fill="black"/>
<path d="M342.887 89.52V37.296H354.695V43.728C357.479 38.736 362.951 36.144 369.479 36.144C380.999 36.144 389.159 44.208 389.159 55.92V89.52H376.583V58.896C376.583 51.984 372.263 47.664 366.023 47.664C359.783 47.664 355.463 52.08 355.463 58.896V89.52H342.887Z" fill="black"/>
<path d="M303.04 90.672C292.096 90.672 285.088 84.912 285.088 75.696C285.088 67.056 290.848 61.008 303.136 58.992L318.688 56.496V54.768C318.688 50.256 314.848 46.896 309.088 46.896C303.616 46.896 299.296 50.064 297.376 54.768L287.104 49.776C290.176 41.616 299.104 36.144 309.568 36.144C322.336 36.144 331.264 43.824 331.264 54.768V89.52H319.36V83.952C315.328 88.368 309.952 90.672 303.04 90.672ZM298.144 75.216C298.144 78.864 301.12 81.072 305.344 81.072C313.312 81.072 318.688 75.408 318.688 68.208V66.096L305.536 68.304C300.544 69.264 298.144 71.472 298.144 75.216Z" fill="black"/>
<path d="M230.294 89.52V37.296H242.102V43.728C244.886 38.736 250.358 36.144 256.886 36.144C268.406 36.144 276.566 44.208 276.566 55.92V89.52H263.99V58.896C263.99 51.984 259.67 47.664 253.43 47.664C247.19 47.664 242.87 52.08 242.87 58.896V89.52H230.294Z" fill="black"/>
<path d="M206.106 31.44V18H218.682V31.44H206.106ZM206.106 89.52V37.296H218.682V89.52H206.106Z" fill="black"/>
<path d="M150.912 89.52V18H198.624V29.52H163.968V49.296H194.304V60.816H163.968V89.52H150.912Z" fill="black"/>
<defs>
<clipPath id="clip0_3_87">
<rect width="115.95" height="115.95" fill="white"/>
</clipPath>
</defs>
</svg>
